<svg width="1730" height="2123" viewBox="0 0 1730 2123" fill="none" xmlns="http://www.w3.org/2000/svg">
<path d="M1619.04 997.624C1491.74 796.212 1267.13 662.353 1011.36 662.353C756.847 662.353 595.082 787.553 430.706 961.435L430.682 961.412L351.435 1045.58V367.929C351.435 175.2 204.988 7.78824 14.0705 0.447065C9.43525 0.141182 4.63529 0 0 0V1606.92L143.906 1776.87L322.706 1585.95C322.706 1585.95 707.859 1174.45 709.2 1172.8C795.153 1081.15 880.353 1013.46 1012.73 1013.46C1144.05 1013.46 1259.36 1082.19 1324.66 1185.53C1360.59 1242.42 1381.27 1309.81 1381.27 1382.14C1381.27 1549.25 1269.86 1690.61 1117.13 1735.69C1059.48 1756.35 991.482 1768.49 913.176 1771.93C879.341 1773.27 846.847 1773.44 819.129 1773.27L449.412 1771.48C435.788 1771.48 422.165 1771.32 408.541 1771.32C382.188 1771.18 355.835 1770.87 329.482 1770.87H191.859C175.388 1770.87 159.224 1772.96 143.929 1776.87C61.5764 1798.28 0.0234088 1873.76 0.0234088 1962.71V2122.64L704.588 2120.09C737.223 2120.09 769.576 2120.99 802.07 2121.6H805.812C836.518 2122.21 867.506 2122.8 898.659 2122.8C992.259 2122.8 1101.72 2117.72 1204.14 2081.18C1242.33 2067.69 1278.87 2051.22 1313.76 2032.21C1559.51 1918.12 1729.6 1669.22 1729.6 1380.66C1729.6 1299.79 1716.28 1221.93 1691.41 1149.46C1673.22 1095.72 1648.82 1044.8 1619.04 997.624Z" fill="#191A1A"/>
</svg>
