<svg width="3530" height="3531" viewBox="0 0 3530 3531" fill="none" xmlns="http://www.w3.org/2000/svg">
<path d="M744.565 0.964661H2785.29C3196.38 0.964661 3529.62 334.212 3529.62 745.294V2786.02C3529.62 3197.11 3196.38 3530.35 2785.29 3530.35H744.565C333.482 3530.35 0.235229 3197.11 0.235229 2786.02V745.294C0.235229 334.212 333.482 0.964661 744.565 0.964661Z" fill="#191A1A"/>
<path d="M2591.69 1701.86C2464.4 1500.45 2239.79 1366.59 1984.02 1366.59C1729.51 1366.59 1567.74 1491.79 1403.36 1665.67L1403.34 1665.65L1324.09 1749.81V1072.16C1324.09 879.435 1177.65 712.024 986.729 704.682C982.094 704.377 977.294 704.235 972.659 704.235V2311.15L1116.56 2481.11L1295.36 2290.19C1295.36 2290.19 1680.52 1878.68 1681.86 1877.04C1767.81 1785.39 1853.01 1717.69 1985.39 1717.69C2116.71 1717.69 2232.02 1786.42 2297.32 1889.76C2333.25 1946.66 2353.93 2014.05 2353.93 2086.38C2353.93 2253.48 2242.52 2394.85 2089.79 2439.93C2032.14 2460.59 1964.14 2472.73 1885.84 2476.16C1852 2477.51 1819.51 2477.67 1791.79 2477.51L1422.07 2475.72C1408.45 2475.72 1394.82 2475.55 1381.2 2475.55C1354.85 2475.41 1328.49 2475.11 1302.14 2475.11H1164.52C1148.05 2475.11 1131.88 2477.2 1116.59 2481.11C1034.24 2502.52 972.682 2578 972.682 2666.94V2826.87L1677.25 2824.33C1709.88 2824.33 1742.24 2825.22 1774.73 2825.84H1778.47C1809.18 2826.45 1840.16 2827.04 1871.32 2827.04C1964.92 2827.04 2074.38 2821.95 2176.8 2785.41C2214.99 2771.93 2251.53 2755.46 2286.42 2736.45C2532.16 2622.35 2702.26 2373.46 2702.26 2084.89C2702.26 2004.02 2688.94 1926.16 2664.07 1853.69C2645.88 1799.95 2621.48 1749.04 2591.69 1701.86Z" fill="white"/>
</svg>
